<svg width="1920" height="900" viewBox="0 0 1920 900" fill="none" xmlns="http://www.w3.org/2000/svg">
<g clip-path="url(#clip0_2751_8128)">
<mask id="mask0_2751_8128" style="mask-type:alpha" maskUnits="userSpaceOnUse" x="-1" y="73" width="1921" height="1592">
<path d="M1920 73.7617H-0.00241089V1664.73H1920V73.7617Z" fill="#D9D9D9"/>
</mask>
<g mask="url(#mask0_2751_8128)">
<g filter="url(#filter0_f_2751_8128)">
<path d="M271.377 463.923C63.9045 335.035 -273.752 357.928 -416.648 385.485L-217.619 1201.72H947.805L1996.83 1231.01L2291.37 587.619C2297.7 580.796 2247.65 529.477 1996.83 378.777C1683.28 190.403 1212.96 311.851 1065.54 464.66C918.123 617.469 530.718 625.031 271.377 463.923Z" fill="#F26B0D"/>
</g>
<g filter="url(#filter1_f_2751_8128)">
<path d="M2291.37 587.617C2297.7 580.794 2247.65 529.475 1996.81 378.775C1683.28 190.401 1212.96 311.849 1065.54 464.658C918.122 617.467 530.717 625.029 271.377 463.921C63.9033 335.034 -273.754 357.926 -416.649 385.482" stroke="#E61216" stroke-width="62.7259"/>
</g>
<g opacity="0.5" filter="url(#filter2_f_2751_8128)">
<path d="M2291.36 542.588C2297.69 535.766 2247.64 484.445 1996.81 333.746C1683.28 145.372 1212.95 266.819 1065.53 419.628C810.62 683.863 530.708 580 271.368 418.892C63.8946 290.005 -273.762 312.896 -416.658 340.453" stroke="#E61216" stroke-width="62.7259"/>
</g>
<g filter="url(#filter3_f_2751_8128)">
</g>
</g>
</g>
<defs>
<filter id="filter0_f_2751_8128" x="-596.874" y="102.567" width="3068.98" height="1308.67" filterUnits="userSpaceOnUse" color-interpolation-filters="sRGB">
<feFlood flood-opacity="0" result="BackgroundImageFix"/>
<feBlend mode="normal" in="SourceGraphic" in2="BackgroundImageFix" result="shape"/>
<feGaussianBlur stdDeviation="90.1132" result="effect1_foregroundBlur_2751_8128"/>
</filter>
<filter id="filter1_f_2751_8128" x="-602.814" y="71.2072" width="3106.28" height="722.404" filterUnits="userSpaceOnUse" color-interpolation-filters="sRGB">
<feFlood flood-opacity="0" result="BackgroundImageFix"/>
<feBlend mode="normal" in="SourceGraphic" in2="BackgroundImageFix" result="shape"/>
<feGaussianBlur stdDeviation="90.1132" result="effect1_foregroundBlur_2751_8128"/>
</filter>
<filter id="filter2_f_2751_8128" x="-602.823" y="26.1779" width="3106.27" height="766.517" filterUnits="userSpaceOnUse" color-interpolation-filters="sRGB">
<feFlood flood-opacity="0" result="BackgroundImageFix"/>
<feBlend mode="normal" in="SourceGraphic" in2="BackgroundImageFix" result="shape"/>
<feGaussianBlur stdDeviation="90.1132" result="effect1_foregroundBlur_2751_8128"/>
</filter>
<filter id="filter3_f_2751_8128" x="-781.224" y="649.202" width="3428.65" height="2436.1" filterUnits="userSpaceOnUse" color-interpolation-filters="sRGB">
<feFlood flood-opacity="0" result="BackgroundImageFix"/>
<feBlend mode="normal" in="SourceGraphic" in2="BackgroundImageFix" result="shape"/>
<feGaussianBlur stdDeviation="125.452" result="effect1_foregroundBlur_2751_8128"/>
</filter>
<clipPath id="clip0_2751_8128">
<rect width="1920" height="900" fill="white"/>
</clipPath>
</defs>
</svg>
