<svg width="1920" height="1179" viewBox="0 0 1920 1179" fill="none" xmlns="http://www.w3.org/2000/svg">
<g clip-path="url(#clip0_2788_320)">
<mask id="mask0_2788_320" style="mask-type:alpha" maskUnits="userSpaceOnUse" x="-3" y="0" width="1923" height="1592">
<path d="M1920 0.762451H-2.00485V1591.73H1920V0.762451Z" fill="#D9D9D9"/>
</mask>
<g mask="url(#mask0_2788_320)">
<g filter="url(#filter0_f_2788_320)">
<path d="M269.658 390.923C61.9688 262.035 -276.04 284.927 -419.085 312.484L-219.848 1128.72H946.791L1996.91 1158.01L2291.76 514.619C2298.1 507.796 2247.99 456.476 1996.91 305.777C1683.04 117.402 1212.22 238.85 1064.65 391.659C917.079 544.468 529.269 552.031 269.658 390.923Z" fill="#F26B0D"/>
</g>
<g filter="url(#filter1_f_2788_320)">
<path d="M-532.876 1135.13C-532.876 3005.72 196.153 2605.45 1005.22 2605.45C1814.29 2605.45 2397.02 2732.27 2397.02 1135.13C2397.02 898.739 1741.14 707.105 932.075 707.105C123.005 707.105 -532.876 898.739 -532.876 1135.13Z" fill="#070707"/>
</g>
</g>
</g>
<defs>
<filter id="filter0_f_2788_320" x="-599.311" y="29.5662" width="3071.81" height="1308.67" filterUnits="userSpaceOnUse" color-interpolation-filters="sRGB">
<feFlood flood-opacity="0" result="BackgroundImageFix"/>
<feBlend mode="normal" in="SourceGraphic" in2="BackgroundImageFix" result="shape"/>
<feGaussianBlur stdDeviation="90.1132" result="effect1_foregroundBlur_2788_320"/>
</filter>
<filter id="filter1_f_2788_320" x="-783.779" y="456.202" width="3431.71" height="2436.1" filterUnits="userSpaceOnUse" color-interpolation-filters="sRGB">
<feFlood flood-opacity="0" result="BackgroundImageFix"/>
<feBlend mode="normal" in="SourceGraphic" in2="BackgroundImageFix" result="shape"/>
<feGaussianBlur stdDeviation="125.452" result="effect1_foregroundBlur_2788_320"/>
</filter>
<clipPath id="clip0_2788_320">
<rect width="1920" height="1179" fill="white"/>
</clipPath>
</defs>
</svg>
