<svg width="19" height="16" viewBox="0 0 19 16" fill="none" xmlns="http://www.w3.org/2000/svg">
<path d="M18.0598 8.67773L11.63 15.1751C11.4959 15.3106 11.3141 15.3867 11.1245 15.3867C10.9349 15.3867 10.7531 15.3106 10.6191 15.1751C10.485 15.0396 10.4097 14.8559 10.4097 14.6643C10.4097 14.4728 10.485 14.289 10.6191 14.1536L15.8299 8.88889H1.83698C1.64751 8.88889 1.46579 8.81283 1.33181 8.67744C1.19783 8.54206 1.12256 8.35843 1.12256 8.16696C1.12256 7.97549 1.19783 7.79187 1.33181 7.65648C1.46579 7.52109 1.64751 7.44503 1.83698 7.44503L15.8299 7.44503L10.6191 2.18036C10.485 2.0449 10.4097 1.86117 10.4097 1.6696C10.4097 1.47802 10.485 1.29429 10.6191 1.15883C10.7531 1.02337 10.9349 0.947266 11.1245 0.947266C11.3141 0.947266 11.4959 1.02337 11.63 1.15883L18.0598 7.6562C18.1262 7.72324 18.1789 7.80286 18.2149 7.89051C18.2508 7.97815 18.2693 8.07209 18.2693 8.16696C18.2693 8.26183 18.2508 8.35578 18.2149 8.44342C18.1789 8.53106 18.1262 8.61068 18.0598 8.67773Z" fill="white" stroke="white" stroke-width="0.3"/>
</svg>
