<svg width="11" height="20" viewBox="0 0 11 20" fill="none" xmlns="http://www.w3.org/2000/svg">
<path d="M6.60704 19.504C5.43414 19.504 4.26124 19.504 3.08833 19.504C3.08833 19.421 3.07649 19.338 3.07649 19.255C3.07649 16.492 3.07649 13.7291 3.07649 10.9661C3.07649 10.8831 3.07649 10.812 3.07649 10.7171C2.0813 10.7171 1.1098 10.7171 0.138306 10.7171C0.138306 9.56688 0.138306 8.44036 0.138306 7.29012C1.12165 7.29012 2.09314 7.29012 3.07649 7.29012C3.07649 7.19525 3.07649 7.1241 3.07649 7.06481C3.07649 6.34147 3.06464 5.61812 3.07649 4.90663C3.08833 4.44416 3.11203 3.98169 3.20681 3.53108C3.55039 1.76422 4.82992 0.578402 6.60704 0.32938C7.47191 0.210799 8.32493 0.281948 9.1898 0.317522C9.48599 0.32938 9.79402 0.376813 10.0902 0.412387C10.0902 1.43219 10.0902 2.44013 10.0902 3.45993C9.33197 3.47179 8.57373 3.45993 7.82734 3.49551C7.21127 3.51922 6.83214 3.85125 6.67813 4.42044C6.64258 4.56274 6.61889 4.7169 6.61889 4.8592C6.60704 5.62998 6.60704 6.40076 6.60704 7.17154C6.60704 7.20711 6.61889 7.25454 6.63074 7.31383C7.7444 7.31383 8.85807 7.31383 9.98358 7.31383C9.84141 8.46407 9.68739 9.5906 9.54522 10.729C8.56188 10.729 7.59038 10.729 6.61889 10.729C6.61889 10.8238 6.61889 10.8831 6.61889 10.9543C6.61889 13.7291 6.61889 16.5158 6.61889 19.2906C6.59519 19.3617 6.60704 19.4329 6.60704 19.504Z" fill="white"/>
</svg>
