<svg width="22" height="23" viewBox="0 0 22 23" fill="none" xmlns="http://www.w3.org/2000/svg">
<path d="M14.4336 11.5026C14.4336 12.1809 14.2325 12.844 13.8556 13.408C13.4788 13.972 12.9432 14.4115 12.3165 14.6711C11.6898 14.9307 11.0003 14.9986 10.335 14.8663C9.6697 14.7339 9.05861 14.4073 8.57898 13.9277C8.09934 13.448 7.77271 12.8369 7.64037 12.1717C7.50804 11.5064 7.57596 10.8168 7.83554 10.1901C8.09511 9.56347 8.53469 9.02785 9.09868 8.651C9.66267 8.27415 10.3257 8.07301 11.0041 8.07301C11.9133 8.07405 12.785 8.43571 13.428 9.07866C14.0709 9.72161 14.4326 10.5933 14.4336 11.5026ZM21.7215 6.78692V16.2183C21.7197 17.8095 21.0868 19.335 19.9616 20.4602C18.8365 21.5853 17.3109 22.2182 15.7197 22.22H6.28838C4.69717 22.2182 3.17165 21.5853 2.04649 20.4602C0.921329 19.335 0.288423 17.8095 0.286621 16.2183V6.78692C0.288423 5.19571 0.921329 3.67018 2.04649 2.54502C3.17165 1.41986 4.69717 0.786958 6.28838 0.785156H15.7197C17.3109 0.786958 18.8365 1.41986 19.9616 2.54502C21.0868 3.67018 21.7197 5.19571 21.7215 6.78692ZM16.1484 11.5026C16.1484 10.4851 15.8467 9.49052 15.2814 8.64453C14.7162 7.79854 13.9127 7.13918 12.9727 6.74981C12.0327 6.36045 10.9983 6.25857 10.0004 6.45707C9.00253 6.65557 8.08589 7.14552 7.36644 7.86497C6.64698 8.58443 6.15703 9.50106 5.95853 10.499C5.76004 11.4969 5.86191 12.5312 6.25128 13.4713C6.64064 14.4113 7.30001 15.2147 8.146 15.78C8.99198 16.3452 9.98659 16.647 11.0041 16.647C12.368 16.6454 13.6755 16.1029 14.64 15.1385C15.6044 14.1741 16.1469 12.8665 16.1484 11.5026ZM17.8632 5.92952C17.8632 5.67516 17.7878 5.42651 17.6465 5.21501C17.5051 5.00351 17.3043 4.83867 17.0693 4.74133C16.8343 4.64399 16.5757 4.61852 16.3262 4.66814C16.0767 4.71777 15.8476 4.84026 15.6677 5.02012C15.4879 5.19998 15.3654 5.42914 15.3157 5.67862C15.2661 5.9281 15.2916 6.18669 15.3889 6.42169C15.4863 6.65669 15.6511 6.85755 15.8626 6.99887C16.0741 7.14019 16.3228 7.21562 16.5771 7.21562C16.9182 7.21562 17.2453 7.08012 17.4865 6.83893C17.7277 6.59774 17.8632 6.27062 17.8632 5.92952Z" fill="white"/>
</svg>
