<svg width="99" height="99" viewBox="0 0 99 99" fill="none" xmlns="http://www.w3.org/2000/svg">
<path d="M69.3081 66.4341C71.262 64.504 72.3803 62.2629 72.3803 59.8728C72.3803 52.6252 62.0986 46.75 49.4155 46.75C36.7324 46.75 26.4507 52.6252 26.4507 59.8728C26.4507 62.2629 27.569 64.504 29.523 66.4341C33.4937 62.5117 40.9153 59.8728 49.4155 59.8728C57.9158 59.8728 65.3373 62.5117 69.3081 66.4341Z" fill="url(#paint0_linear_338_2864)"/>
<path d="M49.4155 72.9954C62.0986 72.9954 72.3803 67.12 72.3803 59.8726V72.9954C72.3803 80.2428 62.0986 86.118 49.4155 86.118C36.7324 86.118 26.4507 80.2428 26.4507 72.9954V59.8726C26.4507 67.12 36.7324 72.9954 49.4155 72.9954Z" fill="url(#paint1_linear_338_2864)"/>
<path d="M69.3081 49.2105C71.262 47.2803 72.3803 45.0393 72.3803 42.6492C72.3803 35.4016 62.0986 29.5264 49.4155 29.5264C36.7324 29.5264 26.4507 35.4016 26.4507 42.6492C26.4507 45.0393 27.569 47.2803 29.523 49.2105C33.4937 45.2881 40.9153 42.6492 49.4155 42.6492C57.9158 42.6492 65.3373 45.2881 69.3081 49.2105Z" fill="url(#paint2_linear_338_2864)"/>
<path d="M49.4155 55.7717C62.0986 55.7717 72.3803 49.8964 72.3803 42.6489V55.7717C72.3803 63.0192 62.0986 68.8944 49.4155 68.8944C36.7324 68.8944 26.4507 63.0192 26.4507 55.7717V42.6489C26.4507 49.8964 36.7324 55.7717 49.4155 55.7717Z" fill="url(#paint3_linear_338_2864)"/>
<path d="M69.3081 31.9869C71.262 30.0567 72.3803 27.8157 72.3803 25.4255C72.3803 18.178 62.0986 12.3027 49.4155 12.3027C36.7324 12.3027 26.4507 18.178 26.4507 25.4255C26.4507 27.8157 27.569 30.0567 29.523 31.9869C33.4937 28.0644 40.9153 25.4255 49.4155 25.4255C57.9158 25.4255 65.3373 28.0644 69.3081 31.9869Z" fill="url(#paint4_linear_338_2864)"/>
<path d="M49.4155 38.5481C62.0986 38.5481 72.3803 32.6727 72.3803 25.4253V38.5481C72.3803 45.7955 62.0986 51.6708 49.4155 51.6708C36.7324 51.6708 26.4507 45.7955 26.4507 38.5481V25.4253C26.4507 32.6727 36.7324 38.5481 49.4155 38.5481Z" fill="url(#paint5_linear_338_2864)"/>
<defs>
<linearGradient id="paint0_linear_338_2864" x1="64.3982" y1="33.3264" x2="61.5413" y2="66.3909" gradientUnits="userSpaceOnUse">
<stop/>
<stop offset="1" stop-color="#D5D5D5"/>
</linearGradient>
<linearGradient id="paint1_linear_338_2864" x1="64.3982" y1="41.9744" x2="59.3484" y2="85.8078" gradientUnits="userSpaceOnUse">
<stop/>
<stop offset="1" stop-color="#D5D5D5"/>
</linearGradient>
<linearGradient id="paint2_linear_338_2864" x1="64.3982" y1="16.1027" x2="61.5413" y2="49.1673" gradientUnits="userSpaceOnUse">
<stop/>
<stop offset="1" stop-color="#D5D5D5"/>
</linearGradient>
<linearGradient id="paint3_linear_338_2864" x1="64.3982" y1="24.7508" x2="59.3484" y2="68.5841" gradientUnits="userSpaceOnUse">
<stop/>
<stop offset="1" stop-color="#D5D5D5"/>
</linearGradient>
<linearGradient id="paint4_linear_338_2864" x1="64.3982" y1="-1.12091" x2="61.5413" y2="31.9436" gradientUnits="userSpaceOnUse">
<stop/>
<stop offset="1" stop-color="#D5D5D5"/>
</linearGradient>
<linearGradient id="paint5_linear_338_2864" x1="64.3982" y1="7.52713" x2="59.3484" y2="51.3605" gradientUnits="userSpaceOnUse">
<stop/>
<stop offset="1" stop-color="#D5D5D5"/>
</linearGradient>
</defs>
</svg>
