<svg width="17" height="18" viewBox="0 0 17 18" fill="none" xmlns="http://www.w3.org/2000/svg">
<path d="M0.0587017 17.3472C0.447001 16.8812 0.8353 16.4264 1.23469 15.9604C2.9543 13.9634 4.67391 11.9554 6.39352 9.95841C6.4268 9.91403 6.46009 9.86965 6.50446 9.82528C4.35218 6.69669 2.21099 3.56811 0.0476074 0.417344C0.114173 0.417344 0.147456 0.40625 0.191833 0.40625C1.73393 0.40625 3.28713 0.40625 4.82923 0.40625C4.94017 0.40625 4.99565 0.450627 5.05112 0.528287C6.41571 2.51416 7.76921 4.48894 9.1338 6.47481C9.16709 6.51919 9.20037 6.57466 9.24475 6.63013C9.5221 6.3084 9.79946 5.98666 10.0657 5.67602C11.5302 3.9786 12.9946 2.28118 14.448 0.572664C14.5478 0.450627 14.6587 0.40625 14.8141 0.40625C15.2135 0.417344 15.6128 0.40625 16.0566 0.40625C13.9931 2.8137 11.9406 5.18788 9.89931 7.57314C9.93259 7.62861 9.96587 7.67299 9.99915 7.71737C12.1625 10.8681 14.3259 14.03 16.5004 17.1808C16.5337 17.2251 16.5559 17.2806 16.5891 17.3361C14.9472 17.3361 13.3052 17.3361 11.6633 17.3361C11.6411 17.3028 11.63 17.2695 11.6078 17.2362C10.1434 15.1283 8.69003 13.0093 7.23669 10.8903C7.2145 10.857 7.18121 10.8238 7.14793 10.7794C7.09246 10.8349 7.04808 10.8903 7.0148 10.9347C5.83881 12.2993 4.66282 13.6639 3.49792 15.0285C2.84336 15.794 2.1777 16.5706 1.52314 17.3361C1.0239 17.3472 0.535755 17.3472 0.0587017 17.3472ZM2.03348 1.50458C2.07786 1.57115 2.10004 1.61552 2.12223 1.64881C5.50598 6.4859 8.87863 11.323 12.2624 16.1712C12.3179 16.2599 12.3844 16.2932 12.4954 16.2932C13.1388 16.2932 13.7823 16.2932 14.4258 16.2932C14.4701 16.2932 14.5145 16.2821 14.5811 16.2821C14.5256 16.2045 14.4923 16.149 14.459 16.1046C11.985 12.5545 9.49991 9.0043 7.02589 5.46523C6.13835 4.20049 5.25081 2.92465 4.36327 1.6599C4.3189 1.60443 4.24124 1.52677 4.18576 1.52677C3.47573 1.50458 2.77679 1.50458 2.03348 1.50458Z" fill="white"/>
</svg>
